<svg width="1600" height="900" viewBox="0 0 1600 900" fill="none" xmlns="http://www.w3.org/2000/svg">
<mask id="mask0_1_3189" style="mask-type:luminance" maskUnits="userSpaceOnUse" x="0" y="0" width="1610" height="900">
<path d="M1610 0H0V900H1610V0Z" fill="white"/>
</mask>
<g mask="url(#mask0_1_3189)">
<path opacity="0.14" d="M218.179 424.36C218.179 423.36 319.83 480.13 464 537.57C607.95 595.93 794.399 654.94 958.949 679.57C933.689 672.88 832.869 648.76 697.869 585.22C563.239 522.22 394.449 419.8 241.869 268.74C96.4794 126.32 -12.4503 -29.4599 -13.7903 -49.9499C-15.4303 -70.5099 -102.03 -116.13 -102.59 -137.76C-103.19 -159.13 -105.95 -129.2 -108.23 -133C-116.71 -146.83 -16.3406 -116.94 -33.5906 -86.5699C-55.0306 -48.2399 -60.5905 5.0401 -60.7105 75.1401C-61.0805 166.07 -57.9306 304.96 -21.1306 404.82C28.4194 538.39 128.459 584.37 412.869 616.63C448.269 620.27 484.54 625.12 520.73 630.48C325.33 521.03 218.249 423.41 218.179 424.36Z" fill="url(#paint0_linear_1_3189)"/>
<path d="M-167.719 420.51C-161.459 441.79 -24.6093 620.05 245.841 795.29C554.211 993.85 828.081 1074.66 1018.32 1110.18C1209.63 1145.06 1317.32 1134.65 1317.77 1136.01C1326.14 1165.48 1031.77 1213.58 587.351 1173.3C340.351 1149.15 171.531 1109.15 52.7709 1061.81C-66.1591 1013.46 -135.039 957.81 -186.309 878.55C-261.719 762.07 -286.449 610.9 -300.149 511.88C-310.919 435.48 -310.289 378.79 -280.709 343.97C-256.849 315.97 -212.419 299.11 -195.499 316.97C-190.959 321.75 -190.159 327.18 -184.899 350.65C-179.669 373.89 -174.169 397.19 -167.719 420.51Z" fill="url(#paint1_linear_1_3189)"/>
<path opacity="0.75" d="M-286.21 102.06C-125.76 176.89 14.5802 270.98 124.86 352.83C234.76 434.7 314.59 504.33 345.38 530.73C520.92 680.39 723.54 761.44 918.47 793.14C1114.06 825.35 1301.96 808.14 1463.04 773.55C1787.55 703.44 1999.9 567.29 2045.56 641.44C2067.62 676.75 2035.01 739.59 1982.1 806.68C1929.45 873.93 1856.49 945.42 1803.95 1001.79C1619.63 1205.26 1356.36 1288.99 1085.58 1265.01C814.07 1243.17 535.07 1113.6 302.95 939.75C69.71 766.75 -116.67 549.52 -228.54 372.67C-341.93 195.46 -380.78 58.6803 -353.93 38.5403C-261.42 -29.9097 -312.93 -19.6197 -388.05 1.73034C-462.93 23.6103 -561.6 56.5403 -557.93 45.4803C-545.24 11.1903 -486.37 23.3903 -426.17 43.8403C-365.93 64.6703 -304.42 93.7404 -286.21 102.06Z" fill="url(#paint2_linear_1_3189)"/>
<path opacity="0.5" d="M1608.6 617.41C1605.55 635.07 1503.12 756.92 1273.6 857.57C1011.79 971.9 757.851 998.73 573.671 995.74C388.811 993.01 273.67 960.45 273.99 961.87C275.64 993.87 595.101 1097.98 1036.71 1149.03C1281.71 1175.96 1441.15 1170.54 1546.94 1150.03C1652.64 1128.49 1704.74 1091.9 1733.13 1031.78C1774.44 943.56 1761.43 816.7 1755.41 732.78C1750.47 668.15 1740.29 618.36 1706.19 579.59C1678.72 548.47 1633.72 520.91 1619.83 532.1C1616.13 535.1 1616.06 539.74 1614.41 559.32C1612.74 578.77 1611.07 598.18 1608.6 617.41Z" fill="url(#paint3_linear_1_3189)"/>
<path d="M1854.85 652.07C1847.96 648.577 1841.39 645.243 1835.13 642.07C1783.3 661.51 1746.13 708.24 1622.3 730.9C1464.3 759.77 1297.3 752.73 1171.06 735.83C1044.63 719.39 958.901 693.09 959 693.83C622.53 618.07 372 463.03 259 383.83C368.9 466.83 617.391 634.07 958 725.08C957.94 724.33 1043.72 754.28 1171.2 776.15C1298.47 798.45 1467.43 812.66 1628.77 790.49C1778.13 769.49 1806.02 711.42 1878.63 703.73C1885.38 702.96 1909.93 700.16 1910.73 690.38C1911.53 680.6 1888.07 668.88 1854.85 652.07Z" fill="url(#paint4_linear_1_3189)"/>
<path d="M1853.94 647.88C1847.04 644.387 1840.47 641.054 1834.24 637.88C1782.43 657.3 1745.24 704.01 1621.5 726.64C1463.56 755.46 1296.71 748.37 1170.5 731.45C1044.15 714.98 958.5 688.67 958.58 689.45C622.47 613.74 369.02 463.18 255.94 383.74C365.94 466.92 617.37 629.74 957.61 720.66C957.55 719.91 1043.27 749.88 1170.66 771.77C1297.83 794.1 1466.66 808.35 1627.92 786.23C1777.2 765.23 1805.1 707.23 1877.67 699.56C1884.41 698.79 1908.95 695.99 1909.75 686.21C1910.55 676.43 1887.15 664.7 1853.94 647.88Z" fill="url(#paint5_linear_1_3189)"/>
<path opacity="0.87" d="M959 693.78C622.53 618.02 372 462.98 259 383.78C368.9 466.78 617.391 634.02 958 725.03C958 724.79 1032.48 749.93 1145.9 771.52C1139.23 757.14 1130.18 743.88 1125.8 729.23C1024.58 712.89 958.961 693.59 959 693.78Z" fill="url(#paint6_linear_1_3189)"/>
<path d="M-162.27 -73.1202C-154.69 -38.8102 -12.35 186.03 261.46 387.25C469.66 543.38 743.46 658.92 961.21 720.6C1179.62 784.74 1342.05 795.04 1341.82 797.32C1341.54 796.59 1261.96 814.42 1129.36 814.89C997.14 815.32 811.91 798.39 609.14 727.17C352.57 638.44 142.86 496.49 -1.55029 376.29C-146.61 255.65 -226.35 156.75 -238.17 143.84C-280.57 92.5298 -319.59 19.6498 -389.36 -47.6702C-395.09 -53.1402 -420.7 -77.9002 -418.47 -86.5802C-416.13 -95.7802 -385.14 -75.3402 -345.14 -73.9902C-333.14 -73.5402 -304.73 -73.1402 -284.35 -91.1302C-279.71 -95.2102 -271.66 -109.31 -255.61 -137.23C-239.3 -165.58 -235.11 -174 -225.36 -171.83C-211.84 -168.83 -198.14 -147.83 -190.29 -136.03C-168.93 -103.77 -162.68 -74.9702 -162.27 -73.1202Z" fill="url(#paint7_linear_1_3189)"/>
<path opacity="0.87" d="M522.619 547.78C430.529 500.27 341.259 445.78 261.459 387.25C-12.3505 186.03 -154.691 -38.81 -162.271 -73.12C-162.681 -74.97 -168.941 -103.77 -190.271 -136.03C-198.121 -147.86 -211.831 -168.82 -225.341 -171.83C-235.091 -174 -239.281 -165.59 -255.591 -137.23C-271.641 -109.31 -279.691 -95.2299 -284.331 -91.13C-304.711 -73.13 -333.161 -73.54 -345.121 -73.99C-385.121 -75.34 -416.121 -95.78 -418.451 -86.58C-420.681 -77.9 -395.071 -53.13 -389.341 -47.67C-319.571 19.65 -280.551 92.53 -238.151 143.84C-226.371 156.72 -147.03 255.09 -2.73047 375.28C140.92 495.03 349.529 636.61 604.879 725.67C582.449 682.67 561.619 639.61 542.969 594.8C536.229 578.99 529.409 563.36 522.619 547.78Z" fill="url(#paint8_linear_1_3189)"/>
<path opacity="0.41" d="M-192.48 327.36C-186.91 349.72 10.7405 552.47 277.8 723.36C581.18 921.69 907.33 1025.19 1150.45 1071.69C1394.72 1119.48 1555.96 1110.27 1556.13 1112.94C1560.7 1127.36 1435.95 1140.76 1253.92 1138.25C1072.08 1136.85 832.92 1119.54 613.3 1097.96C368.98 1075.11 201.97 1036.17 84.5705 989.67C-32.9995 942.17 -100.94 887.12 -151.25 808.59C-225.25 693.13 -248.699 543 -261.589 444.68C-271.719 368.82 -270.67 312.5 -241.05 277.74C-217.35 249.86 -280.56 195.63 -263.93 213.85C-259.5 218.74 -268.379 228.13 -263.589 251.75C-258.799 275.37 -198.53 304.23 -192.48 327.36Z" fill="url(#paint9_linear_1_3189)"/>
<path opacity="0.41" d="M-192.48 327.36C-186.91 349.72 10.7396 552.47 277.8 723.36C581.18 921.69 907.33 1025.19 1150.45 1071.69C1394.72 1119.48 1555.96 1110.27 1556.13 1112.94C1560.7 1127.36 1435.95 1140.76 1253.92 1138.25C1072.08 1136.85 832.92 1119.54 613.3 1097.96C368.98 1075.11 201.97 1036.17 84.5696 989.67C-33.0004 942.17 -100.94 887.12 -151.25 808.59C-225.25 693.13 -248.7 543 -261.59 444.68C-271.72 368.82 -270.67 312.5 -241.05 277.74C-217.36 250.13 -318.56 191.9 -301.96 210.07C-297.52 215.07 -288.31 215.54 -283.6 239.19C-278.93 262.94 -198.56 304.36 -192.48 327.36Z" fill="url(#paint10_linear_1_3189)"/>
</g>
<defs>
<linearGradient id="paint0_linear_1_3189" x1="-142.677" y1="-126.606" x2="941.97" y2="1096.51" gradientUnits="userSpaceOnUse">
<stop stop-color="#DEDEDE"/>
<stop offset="1" stop-color="#909090"/>
</linearGradient>
<linearGradient id="paint1_linear_1_3189" x1="-150.614" y1="209.756" x2="1208.68" y2="1742.57" gradientUnits="userSpaceOnUse">
<stop stop-color="#7B7B7B"/>
<stop offset="0.44" stop-color="#3F3F3F"/>
</linearGradient>
<linearGradient id="paint2_linear_1_3189" x1="107.185" y1="926.751" x2="1758.09" y2="-356.413" gradientUnits="userSpaceOnUse">
<stop offset="0.01" stop-color="#7E7E7E"/>
<stop offset="0.21" stop-color="#CBCBCB"/>
<stop offset="0.22" stop-color="#C3C3C3"/>
<stop offset="0.27" stop-color="#9C9C9C"/>
<stop offset="0.32" stop-color="#7A7A7A"/>
<stop offset="0.37" stop-color="#5F5F5F"/>
<stop offset="0.43" stop-color="#494949"/>
<stop offset="0.5" stop-color="#3A3A3A"/>
<stop offset="0.57" stop-color="#323232"/>
<stop offset="0.69" stop-color="#2F2F2F"/>
</linearGradient>
<linearGradient id="paint3_linear_1_3189" x1="922.033" y1="645.35" x2="1340.57" y2="1476.27" gradientUnits="userSpaceOnUse">
<stop stop-color="#808080"/>
<stop offset="0.43" stop-color="#5E5E5E"/>
<stop offset="1" stop-color="#7E7E7E"/>
</linearGradient>
<linearGradient id="paint4_linear_1_3189" x1="260.01" y1="316.7" x2="1371.32" y2="676.7" gradientUnits="userSpaceOnUse">
<stop stop-color="#D5D5D5"/>
<stop offset="0.19" stop-color="#BBBBBB"/>
<stop offset="0.59" stop-color="#797979"/>
<stop offset="1" stop-color="#2F2F2F"/>
</linearGradient>
<linearGradient id="paint5_linear_1_3189" x1="90.4299" y1="200.35" x2="1594.6" y2="757.56" gradientUnits="userSpaceOnUse">
<stop stop-color="#D5D5D5"/>
<stop offset="1" stop-color="#AEAEAE"/>
</linearGradient>
<linearGradient id="paint6_linear_1_3189" x1="180.011" y1="320.12" x2="981.4" y2="719.25" gradientUnits="userSpaceOnUse">
<stop stop-color="white" stop-opacity="0"/>
<stop offset="0.49" stop-color="#F8F8F8"/>
<stop offset="1" stop-color="#F7F7F7" stop-opacity="0"/>
</linearGradient>
<linearGradient id="paint7_linear_1_3189" x1="-446.231" y1="269.728" x2="1364.03" y2="378.343" gradientUnits="userSpaceOnUse">
<stop stop-color="#DEDEDE"/>
<stop offset="0.13" stop-color="#BBBBBB"/>
<stop offset="0.34" stop-color="#898989"/>
<stop offset="0.54" stop-color="#626262"/>
<stop offset="0.72" stop-color="#464646"/>
<stop offset="0.88" stop-color="#353535"/>
<stop offset="1" stop-color="#2F2F2F"/>
</linearGradient>
<linearGradient id="paint8_linear_1_3189" x1="340.409" y1="193.142" x2="-161.195" y2="443.954" gradientUnits="userSpaceOnUse">
<stop stop-color="white" stop-opacity="0"/>
<stop offset="0.49" stop-color="#F8F8F8"/>
<stop offset="1" stop-color="#F7F7F7" stop-opacity="0"/>
</linearGradient>
<linearGradient id="paint9_linear_1_3189" x1="-111.524" y1="52.8606" x2="1435.93" y2="1797.85" gradientUnits="userSpaceOnUse">
<stop stop-color="#DEDEDE"/>
<stop offset="1" stop-color="#909090"/>
</linearGradient>
<linearGradient id="paint10_linear_1_3189" x1="923.516" y1="394.446" x2="-76.4877" y2="1281.24" gradientUnits="userSpaceOnUse">
<stop offset="0.17" stop-color="#DEDEDE" stop-opacity="0"/>
<stop offset="0.38" stop-color="white"/>
<stop offset="0.82" stop-color="#DDDDDD" stop-opacity="0"/>
</linearGradient>
</defs>
</svg>
